<?xml version="1.0" encoding="utf-8"?>
<svg xmlns="http://www.w3.org/2000/svg" xmlns:xlink="http://www.w3.org/1999/xlink" width="500" height="500">
  <rect width="500" height="500"></rect>
  <path fill="#F9CF59" transform="translate(250 434.511)" d="M-150 0C-150 -1.10457 -149.105 -2 -148 -2L148 -2C149.105 -2 150 -1.10457 150 0L150 0C150 1.10457 149.105 2 148 2L-148 2C-149.105 2 -150 1.10457 -150 0L-150 0Z"></path>
  <path fill="#FD5991" transform="translate(250 434.511)" d="M0 -20C11.0457 -20 20 -11.0457 20 0C20 11.0457 11.0457 20 0 20C-11.0457 20 -20 11.0457 -20 0C-20 -11.0457 -11.0457 -20 0 -20Z"></path>
  <clipPath id="cl_7">
    <path d="M250 125C314.341 125 367.328 173.612 374.237 236.112C374.741 240.672 388.695 244.158 388.695 252.952C388.695 263.87 374.505 262.863 373.552 269.086C364.363 329.062 312.546 375 250 375C180.964 375 125 319.036 125 250C125 180.964 180.964 125 250 125Z"></path>
  </clipPath>
  <g clip-path="url(#cl_7)">
    <defs>
      <radialGradient id="gradient_0" gradientUnits="userSpaceOnUse" cx="-22.748137" cy="-64.869476" fx="-22.748137" fy="-64.869476" r="227.80937" fr="0">
        <stop offset="0" stop-color="#FBD15A" stop-opacity="0"></stop>
        <stop offset="0.48809522" stop-color="#FBD15A" stop-opacity="0"></stop>
        <stop offset="0.65079367" stop-color="#FBD15A"></stop>
        <stop offset="1" stop-color="#FBD15A"></stop>
      </radialGradient>
    </defs>
    <path fill="url(#gradient_0)" transform="matrix(1.22502 -0.677739 0.677739 1.22502 295.73 242.431)" d="M-15.2266 -102.507C53.9667 -102.507 110.059 -52.0499 110.059 10.1917C110.059 72.4332 53.9667 122.89 -15.2266 122.89C-84.4199 122.89 -140.512 72.4332 -140.512 10.1917C-140.512 -52.0499 -84.4199 -102.507 -15.2266 -102.507Z"></path>
    <defs>
      <radialGradient id="gradient_1" gradientUnits="userSpaceOnUse" cx="-26.004414" cy="-156.92201" fx="-26.004414" fy="-156.92201" r="469.86722" fr="0">
        <stop offset="0" stop-color="white" stop-opacity="0"></stop>
        <stop offset="0.46825397" stop-color="white" stop-opacity="0"></stop>
        <stop offset="0.6825397" stop-color="white"></stop>
        <stop offset="1" stop-color="white"></stop>
      </radialGradient>
    </defs>
    <path fill="url(#gradient_1)" transform="matrix(-0.383771 -0.70194 0.70194 -0.383771 266.856 256.627)" d="M0 -189.401C95.1139 -189.401 172.219 -108.538 172.219 -8.78923C172.219 90.9599 95.1139 171.823 0 171.823C-95.1139 171.823 -172.219 90.9599 -172.219 -8.78923C-172.219 -108.538 -95.1139 -189.401 0 -189.401Z"></path>
  </g>
  <path fill="#411685" transform="translate(364 236)" d="M0 -2.5C1.38071 -2.5 2.5 -1.38071 2.5 0C2.5 1.38071 1.38071 2.5 0 2.5C-1.38071 2.5 -2.5 1.38071 -2.5 0C-2.5 -1.38071 -1.38071 -2.5 0 -2.5Z"></path>
  <clipPath id="cl_9">
    <path d="M250 157.5C301.086 157.5 342.5 198.914 342.5 250C342.5 301.086 301.086 342.5 250 342.5C198.914 342.5 157.5 301.086 157.5 250C157.5 198.914 198.914 157.5 250 157.5Z"></path>
  </clipPath>
  <g clip-path="url(#cl_9)">
    <path fill="#411685" transform="translate(150 300)" d="M-500 -40C-480 -40 -470 -60 -450 -60C-430 -60 -420 -40 -400 -40C-380 -40 -370 -60 -350 -60C-330 -60 -320 -40 -300 -40C-280 -40 -270 -60 -250 -60C-230 -60 -220 -40 -200 -40C-180 -40 -170 -60 -150 -60C-130 -60 -120 -40 -100 -40C-80 -40 -70 -60 -50 -60C-30 -60 -20 -40 0 -40C20 -40 30 -60 50 -60C70 -60 80 -40 100 -40C120 -40 130 -60 150 -60C170 -60 180 -40 200 -40C220 -40 230 -60 250 -60C270 -60 280 -40 300 -40C320 -40 330 -60 350 -60C370 -60 380 -40 400 -40C420 -40 430 -60 450 -60C470 -60 480 -40 500 -40C520 -40 530 -60 550 -60C570 -60 580 -40 600 -40C600 -10.3459 600 258.328 600 258.328L-500 258.328C-500 258.328 -500 -25.559 -500 -40Z"></path>
    <path fill="#FD5991" transform="translate(200 300)" d="M-500 -40C-480 -40 -470 -60 -450 -60C-430 -60 -420 -40 -400 -40C-380 -40 -370 -60 -350 -60C-330 -60 -320 -40 -300 -40C-280 -40 -270 -60 -250 -60C-230 -60 -220 -40 -200 -40C-180 -40 -170 -60 -150 -60C-130 -60 -120 -40 -100 -40C-80 -40 -70 -60 -50 -60C-30 -60 -20 -40 0 -40C20 -40 30 -60 50 -60C70 -60 80 -40 100 -40C120 -40 130 -60 150 -60C170 -60 180 -40 200 -40C220 -40 230 -60 250 -60C270 -60 280 -40 300 -40C320 -40 330 -60 350 -60C370 -60 380 -40 400 -40C420 -40 430 -60 450 -60C470 -60 480 -40 500 -40C520 -40 530 -60 550 -60C570 -60 580 -40 600 -40C600 -10.3459 600 258.328 600 258.328L-500 258.328C-500 258.328 -500 -25.559 -500 -40Z"></path>
  </g>
</svg>