<?xml version="1.0" encoding="utf-8"?>
<svg xmlns="http://www.w3.org/2000/svg" xmlns:xlink="http://www.w3.org/1999/xlink" width="500" height="500">
  <rect width="500" height="500"></rect>
  <clipPath id="cl_3">
    <rect width="500" height="500"></rect>
  </clipPath>
  <g clip-path="url(#cl_3)">
    <path fill="#2B0C5C" transform="translate(250 500)" d="M-250 -500L250 -500L250 0L-250 0L-250 -500Z"></path>
    <path fill="none" stroke="#FBD15A" stroke-width="6" stroke-linecap="round" stroke-linejoin="round" transform="matrix(0.9 0 0 0.9 376 50.0574)" d="M48 12L57.5351 6.55651e-07M48 -12L57.5351 6.55651e-07M-3.69549e-06 6.55651e-07L57.5351 6.55651e-07"></path>
    <path fill="none" stroke="#FBD15A" stroke-width="6" stroke-linecap="round" stroke-linejoin="round" transform="matrix(-0.9 -1.35896e-07 -1.35896e-07 0.9 124 50.0574)" d="M48 12L57.5351 6.55651e-07M48 -12L57.5351 6.55651e-07M-3.69549e-06 6.55651e-07L57.5351 6.55651e-07"></path>
    <path fill="#FBD15A" transform="matrix(0.9 0 0 0.9 250 50.0574)" d="M0 -14.9211C8.24071 -14.9211 14.9211 -8.24071 14.9211 0C14.9211 8.24071 8.24071 14.9211 0 14.9211C-8.24071 14.9211 -14.9211 8.24071 -14.9211 0C-14.9211 -8.24071 -8.24071 -14.9211 0 -14.9211Z"></path>
    <path fill="#5903C4" transform="translate(50 440)" d="M-100 60.0001C-100 26.863 -73.1371 9.15527e-05 -40 9.15527e-05L100 9.15527e-05L100 549.752L-100 549.752L-100 60.0001Z"></path>
    <path fill="none" stroke="#5903C4" stroke-width="1" stroke-linejoin="round" transform="translate(50 440)" d="M-100 60.0001C-100 26.863 -73.1371 9.15527e-05 -40 9.15527e-05L100 9.15527e-05L100 549.752L-100 549.752L-100 60.0001Z"></path>
    <path fill="#5903C4" transform="translate(450 300)" d="M-100 60.0001C-100 26.863 -73.1371 9.15527e-05 -40 9.15527e-05L100 9.15527e-05L100 507.244L-100 507.244L-100 60.0001Z"></path>
    <path fill="none" stroke="#5903C4" stroke-width="1" stroke-linejoin="round" transform="translate(450 300)" d="M-100 60.0001C-100 26.863 -73.1371 9.15527e-05 -40 9.15527e-05L100 9.15527e-05L100 507.244L-100 507.244L-100 60.0001Z"></path>
    <path fill="#5903C4" transform="translate(250 370)" d="M-100 60.0001C-100 26.863 -73.1371 9.15527e-05 -40 9.15527e-05L100 9.15527e-05L100 549.752L-100 549.752L-100 60.0001Z"></path>
    <path fill="none" stroke="#5903C4" stroke-width="1" stroke-linejoin="round" transform="translate(250 370)" d="M-100 60.0001C-100 26.863 -73.1371 9.15527e-05 -40 9.15527e-05L100 9.15527e-05L100 549.752L-100 549.752L-100 60.0001Z"></path>
    <path fill="white" transform="matrix(0.5 0 0 0.5 331.32 11.2451)" d="M-22.4903 -22.4903L22.4903 -22.4903L22.4903 22.4903L-22.4903 22.4903L-22.4903 -22.4903Z"></path>
    <path fill="#2B0C5C" transform="matrix(0.5 0 0 0.5 353.81 11.2451)" d="M-22.4903 -22.4903L22.4903 -22.4903L22.4903 22.4903L-22.4903 22.4903L-22.4903 -22.4903Z"></path>
    <path fill="#5903C4" transform="matrix(0.5 0 0 0.5 376.3 11.2451)" d="M-22.4903 -22.4903L22.4903 -22.4903L22.4903 22.4903L-22.4903 22.4903L-22.4903 -22.4903Z"></path>
    <path fill="#FD6698" transform="matrix(0.5 0 0 0.5 398.79 11.2451)" d="M-22.4903 -22.4903L22.4903 -22.4903L22.4903 22.4903L-22.4903 22.4903L-22.4903 -22.4903Z"></path>
    <path fill="#FFD14F" transform="matrix(0.5 0 0 0.5 421.28 11.2451)" d="M-22.4903 -22.4903L22.4903 -22.4903L22.4903 22.4903L-22.4903 22.4903L-22.4903 -22.4903Z"></path>
    <path fill="#26E520" transform="matrix(0.5 0 0 0.5 443.771 11.2451)" d="M-22.4903 -22.4903L22.4903 -22.4903L22.4903 22.4903L-22.4903 22.4903L-22.4903 -22.4903Z"></path>
    <path fill="#207EE5" transform="matrix(0.5 0 0 0.5 466.262 11.2451)" d="M-22.4903 -22.4903L22.4903 -22.4903L22.4903 22.4903L-22.4903 22.4903L-22.4903 -22.4903Z"></path>
    <path fill="#FFAA2F" transform="matrix(0.5 0 0 0.5 488.754 11.2451)" d="M-22.4903 -22.4903L22.4903 -22.4903L22.4903 22.4903L-22.4903 22.4903L-22.4903 -22.4903Z"></path>
  </g>
</svg>