<?xml version="1.0" encoding="UTF-8"?>
<svg id="Layer_1" xmlns="http://www.w3.org/2000/svg" xmlns:xlink="http://www.w3.org/1999/xlink" version="1.1" viewBox="0 0 1156 1409.5">
  <!-- Generator: Adobe Illustrator 30.5.1, SVG Export Plug-In . SVG Version: 2.1.4 Build 3)  -->
  <defs>
    <style>
      .st0, .st1, .st2, .st3, .st4, .st5, .st6, .st7 {
        fill: #d0df00;
      }

      .st0, .st8, .st9, .st10, .st11 {
        fill-opacity: .3;
      }

      .st1, .st12, .st13, .st14, .st15 {
        fill-opacity: .5;
      }

      .st2, .st16, .st17, .st18, .st19 {
        fill-opacity: .6;
      }

      .st3, .st20, .st21, .st22, .st23 {
        fill-opacity: .7;
      }

      .st4, .st24, .st25, .st26, .st27 {
        fill-opacity: .8;
      }

      .st5, .st28, .st29, .st30, .st31 {
        fill-opacity: .9;
      }

      .st6, .st32, .st33, .st34, .st35 {
        fill-opacity: .4;
      }

      .st8, .st28, .st24, .st20, .st12, .st16, .st32, .st36 {
        fill: #0093ba;
      }

      .st37 {
        fill: url(#linear-gradient2);
      }

      .st38 {
        fill: url(#linear-gradient1);
      }

      .st39, .st10, .st22, .st34, .st14, .st18, .st30, .st26 {
        fill: #00becd;
      }

      .st29, .st25, .st21, .st9, .st13, .st17, .st33, .st40 {
        fill: #ff9e52;
      }

      .st41 {
        fill: url(#radial-gradient);
      }

      .st42 {
        fill: url(#linear-gradient);
      }

      .st43 {
        stroke: #f9ff00;
        stroke-width: 2px;
      }

      .st43, .st44 {
        stroke-linecap: round;
        stroke-linejoin: round;
      }

      .st43, .st44, .st45 {
        fill: none;
      }

      .st44 {
        stroke-width: 3px;
      }

      .st44, .st45 {
        stroke: #ff6700;
      }

      .st35, .st23, .st15, .st19, .st27, .st31, .st11, .st46 {
        fill: gold;
      }

      .st45 {
        stroke-width: 1.1px;
      }
    </style>
    <linearGradient id="linear-gradient" x1="578" y1="-306.5" x2="578" y2="842.5" gradientTransform="translate(0 307)" gradientUnits="userSpaceOnUse">
      <stop offset="0" stop-color="#000"/>
      <stop offset=".6" stop-color="#000f17"/>
      <stop offset="1" stop-color="#003542"/>
    </linearGradient>
    <linearGradient id="linear-gradient1" x1="722.2" y1="310.7" x2="755.1" y2="343.6" gradientTransform="translate(0 307)" gradientUnits="userSpaceOnUse">
      <stop offset="0" stop-color="#0093ba"/>
      <stop offset="1" stop-color="#00becd"/>
    </linearGradient>
    <radialGradient id="radial-gradient" cx="559" cy="128.7" fx="559" fy="128.7" r=".6" gradientTransform="translate(-312462 -70996.2715) scale(560)" gradientUnits="userSpaceOnUse">
      <stop offset="0" stop-color="#fff"/>
      <stop offset=".8" stop-color="#fffff2"/>
      <stop offset="1" stop-color="#fffff9" stop-opacity="0"/>
    </radialGradient>
    <linearGradient id="linear-gradient2" x1="448.4" y1="116.9" x2="492.7" y2="161.2" gradientTransform="translate(0 307)" gradientUnits="userSpaceOnUse">
      <stop offset="0" stop-color="#00becd"/>
      <stop offset="1" stop-color="#0093ba"/>
    </linearGradient>
  </defs>
  <rect id="BG" class="st42" y=".5" width="1156" height="1149"/>
  <g id="Stars">
    <circle class="st21" cx="42.3" cy="782.2" r="2.4"/>
    <circle class="st26" cx="897.9" cy="957.1" r="1.9"/>
    <circle class="st39" cx="282.3" cy="51.7" r="1.6"/>
    <circle class="st16" cx="609.7" cy="199.5" r="1.2"/>
    <circle class="st30" cx="267.9" cy="431.4" r="1.9"/>
    <circle class="st36" cx="867.7" cy="1080.2" r="1.5"/>
    <circle class="st25" cx="174.4" cy="328.6" r="2"/>
    <circle class="st27" cx="272.9" cy="416" r=".9"/>
    <circle class="st27" cx="403.9" cy="249.3" r="1.5"/>
    <circle class="st3" cx="450.8" cy="283.2" r="2"/>
    <circle class="st5" cx="422.5" cy="451.1" r="1"/>
    <circle class="st20" cx="114.9" cy="561.8" r="2.4"/>
    <circle class="st46" cx="206.4" cy="446.6" r="1.1"/>
    <circle class="st22" cx="450.5" cy="874.9" r=".8"/>
    <circle class="st7" cx="104.6" cy="1048.9" r="2.1"/>
    <circle class="st39" cx="1097.6" cy="626.7" r="1.7"/>
    <circle class="st16" cx="329.6" cy="837.9" r="1"/>
    <circle class="st31" cx="584.2" cy="309.2" r="1.1"/>
    <circle class="st28" cx="1071.2" cy="468.5" r="1.7"/>
    <circle class="st24" cx="810.7" cy="1142.2" r="2.1"/>
    <circle class="st21" cx="922.9" cy="107.9" r="2.2"/>
    <circle class="st23" cx="588.1" cy="3.8" r="2.4"/>
    <circle class="st27" cx="199.5" cy="1088.1" r="1.7"/>
    <circle class="st16" cx="144.1" cy="332.8" r="1.3"/>
    <path class="st30" d="M1025.2,245.6c1.2,0,2.1,1,2.1,2.1s-1,2.1-2.1,2.1-2.1-1-2.1-2.1,1-2.1,2.1-2.1Z"/>
    <circle class="st26" cx="513" cy="1102" r="1.7"/>
    <circle class="st4" cx="1020.7" cy="100.7" r="1.8"/>
    <circle class="st30" cx="1009.8" cy="245.4" r="1.7"/>
    <circle class="st30" cx="130.8" cy="633" r="1.7"/>
    <circle class="st16" cx="730.8" cy="688.3" r="1.7"/>
    <circle class="st20" cx="102.3" cy="471.3" r="1.4"/>
    <path class="st25" d="M1024.9,646.9c1.2,0,2.2,1,2.2,2.2s-1,2.2-2.2,2.2-2.2-1-2.2-2.2,1-2.2,2.2-2.2Z"/>
    <circle class="st31" cx="812.7" cy="349.8" r="1.5"/>
    <circle class="st25" cx="1051.5" cy="1008.1" r="1.1"/>
    <circle class="st24" cx="628.2" cy="1071.6" r="2.4"/>
    <circle class="st16" cx="1108" cy="1007.4" r="1.3"/>
    <circle class="st46" cx="544.6" cy="984.8" r="2.3"/>
    <circle class="st39" cx="665.8" cy="434" r="1.7"/>
    <circle class="st24" cx="819.9" cy="199.4" r="1.2"/>
    <circle class="st17" cx="115.1" cy="994.6" r="2.4"/>
    <circle class="st22" cx="1071.7" cy="591.5" r="1.2"/>
    <circle class="st26" cx="526.7" cy="1139.4" r="1.5"/>
    <circle class="st16" cx="712.5" cy="309.6" r="2.3"/>
    <circle class="st46" cx="1014.1" cy="145.4" r="1.9"/>
    <circle class="st18" cx="618.4" cy="185.7" r="2.2"/>
    <circle class="st25" cx="998" cy="597" r="1.4"/>
    <circle class="st5" cx="593.7" cy="423" r="2.4"/>
    <circle class="st20" cx="562.8" cy="879.7" r="1.3"/>
    <circle class="st26" cx="170.9" cy="841.1" r="1.4"/>
    <circle class="st20" cx="1014.2" cy="1004.7" r="1.3"/>
    <circle class="st16" cx="972.6" cy="138.9" r="1.4"/>
    <circle class="st16" cx="583.2" cy="271" r="1.3"/>
    <circle class="st24" cx="285.8" cy="311.1" r="2.4"/>
    <circle class="st22" cx="974.7" cy="1144.6" r="2.3"/>
    <circle class="st21" cx="876.1" cy="1086.4" r=".8"/>
    <circle class="st18" cx="161.4" cy="117.9" r="2.2"/>
    <circle class="st18" cx="1049.8" cy="869" r="1"/>
    <circle class="st4" cx="549.5" cy="233.4" r=".9"/>
    <circle class="st36" cx="342.7" cy="1074.5" r="2.4"/>
    <circle class="st20" cx="899.4" cy="1012.9" r=".9"/>
    <circle class="st19" cx="1104.9" cy="1136.7" r="1.2"/>
    <circle class="st24" cx="482.1" cy="796.9" r="1"/>
    <circle class="st20" cx="434.4" cy="783.4" r="2.5"/>
    <circle class="st46" cx="503.2" cy="718.3" r="1.5"/>
    <circle class="st3" cx="619.9" cy="791.9" r="1.1"/>
    <circle class="st19" cx="1107.6" cy="251.6" r="1.1"/>
    <circle class="st22" cx="9.1" cy="745.3" r=".8"/>
    <circle class="st40" cx="347.2" cy="1066" r="2.4"/>
    <circle class="st18" cx="454.3" cy="906.3" r="1.1"/>
    <circle class="st29" cx="674.8" cy="105.9" r="2.3"/>
    <circle class="st12" cx="926.9" cy="578.9" r=".8"/>
    <circle class="st9" cx="1028.3" cy="954.9" r="1.1"/>
    <circle class="st32" cx="629.1" cy="1026.7" r="1.2"/>
    <circle class="st6" cx="998.6" cy="772.3" r=".7"/>
    <circle class="st2" cx="1074.8" cy="1037.8" r=".9"/>
    <circle class="st19" cx="307.7" cy="111.8" r="1.2"/>
    <circle class="st15" cx="88.7" cy="552.8" r="1"/>
    <circle class="st1" cx="74.3" cy="764.9" r=".8"/>
    <circle class="st13" cx="251.2" cy="1001.5" r=".8"/>
    <circle class="st14" cx="1061.9" cy="600.7" r="1.1"/>
    <circle class="st2" cx="334.4" cy="133.5" r=".9"/>
    <circle class="st14" cx="1136.4" cy="116.5" r=".8"/>
    <circle class="st6" cx="690.6" cy="497.1" r=".7"/>
    <circle class="st14" cx="873.6" cy="575.9" r="1.1"/>
    <circle class="st34" cx="678.1" cy="282.2" r=".5"/>
    <circle class="st15" cx="236.7" cy="742.8" r=".8"/>
    <circle class="st1" cx="1036" cy="59.4" r=".5"/>
    <path class="st16" d="M255.7,204.4c.3,0,.6.2.6.6s-.2.6-.6.6-.6-.2-.6-.6.2-.6.6-.6h0Z"/>
    <circle class="st15" cx="461.7" cy="304.3" r="1.2"/>
    <circle class="st11" cx="544.6" cy="483.1" r=".6"/>
    <circle class="st2" cx="1091.1" cy="409.3" r="1"/>
    <circle class="st12" cx="588.9" cy="728.4" r="1.3"/>
    <circle class="st6" cx="323.7" cy="184.2" r=".8"/>
    <circle class="st12" cx="775.9" cy="443.1" r="1.2"/>
    <circle class="st9" cx="1052.6" cy="318.2" r=".9"/>
    <circle class="st17" cx="430" cy="422.6" r=".9"/>
    <circle class="st18" cx="713.7" cy="561.4" r="1"/>
    <circle class="st33" cx="449.1" cy="402.1" r=".9"/>
    <circle class="st35" cx="338" cy="600.9" r=".5"/>
    <circle class="st8" cx="259" cy="934.5" r="1"/>
    <circle class="st16" cx="118.9" cy="517.7" r=".4"/>
    <circle class="st14" cx="486.3" cy="314.7" r="1.2"/>
    <circle class="st34" cx="369.3" cy="201.6" r=".6"/>
    <circle class="st10" cx="174.6" cy="967.7" r=".8"/>
    <circle class="st13" cx="630.5" cy="250.2" r="1.3"/>
    <circle class="st12" cx="878.4" cy="261.6" r=".9"/>
    <circle class="st16" cx="782.8" cy="262.3" r="1.3"/>
    <circle class="st8" cx="772.6" cy="919.7" r="1"/>
    <circle class="st17" cx="50.7" cy="914.9" r=".6"/>
    <circle class="st12" cx="660" cy="715.2" r="1.1"/>
    <circle class="st12" cx="797.1" cy="583.6" r=".9"/>
    <circle class="st1" cx="359.4" cy="115" r=".7"/>
    <circle class="st6" cx="1126.8" cy="288.9" r=".9"/>
    <path class="st10" d="M954,511.2c.5,0,1,.4,1,1s-.4,1-1,1-1-.4-1-1,.4-1,1-1Z"/>
    <circle class="st18" cx="614.2" cy="150.4" r=".6"/>
    <circle class="st32" cx="250.9" cy="313" r="1"/>
    <circle class="st2" cx="105" cy="392.2" r="1.2"/>
    <circle class="st15" cx="42.9" cy="334.6" r=".9"/>
    <circle class="st17" cx="582.8" cy="267.4" r=".5"/>
    <circle class="st0" cx="372" cy="69.9" r=".6"/>
    <circle class="st33" cx="579.1" cy="752.3" r=".8"/>
    <circle class="st18" cx="904.2" cy="810.7" r=".8"/>
    <circle class="st14" cx="975.4" cy="842.4" r="1"/>
    <circle class="st10" cx="1099.8" cy="17.1" r=".5"/>
    <circle class="st18" cx="598.8" cy="781.9" r=".7"/>
    <circle class="st10" cx="348.6" cy="950.3" r="1"/>
    <circle class="st0" cx="714.3" cy="706.4" r=".6"/>
    <circle class="st34" cx="1023" cy="117.2" r=".8"/>
    <circle class="st1" cx="489.2" cy="110.1" r=".5"/>
    <circle class="st19" cx="1036.2" cy="422.8" r="1.3"/>
    <circle class="st16" cx="512.9" cy="839.6" r=".8"/>
    <circle class="st17" cx="346.8" cy="436.9" r=".6"/>
    <circle class="st14" cx="924.3" cy="715.2" r=".5"/>
    <circle class="st15" cx="262.2" cy="174.1" r=".9"/>
    <circle class="st9" cx="604.6" cy="49.6" r=".5"/>
    <circle class="st18" cx="1032.9" cy="1120.8" r="1.1"/>
    <circle class="st17" cx="581.5" cy="204.9" r=".7"/>
    <circle class="st16" cx="745" cy="717.1" r=".8"/>
    <circle class="st35" cx="363.1" cy="846.9" r="1.1"/>
    <circle class="st0" cx="23.1" cy="104.1" r=".6"/>
    <circle class="st16" cx="1048.9" cy="33" r=".7"/>
    <circle class="st0" cx="661.5" cy=".9" r=".9"/>
    <circle class="st18" cx="1045" cy="291.9" r="1.2"/>
    <circle class="st12" cx="693.2" cy="135.5" r=".8"/>
    <circle class="st34" cx="25.3" cy="579.6" r=".5"/>
    <circle class="st17" cx="127.7" cy="131.2" r=".6"/>
    <circle class="st14" cx="706.5" cy="1093" r=".5"/>
    <circle class="st2" cx="1021" cy="266.7" r="1.2"/>
    <circle class="st10" cx="423.4" cy="620.9" r=".9"/>
    <circle class="st11" cx="792.9" cy="490.3" r=".5"/>
    <circle class="st11" cx="447.1" cy="542.7" r="1.2"/>
    <circle class="st8" cx="212.2" cy="856.7" r=".8"/>
    <circle class="st35" cx="691.2" cy="681.3" r=".5"/>
    <circle class="st18" cx="934.1" cy="387" r="1"/>
    <circle class="st34" cx="184.8" cy="707" r="1"/>
    <circle class="st12" cx="632.3" cy="1105.5" r=".5"/>
    <circle class="st8" cx="526.8" cy="937.6" r=".7"/>
    <circle class="st16" cx="133.5" cy="931.5" r=".7"/>
    <circle class="st6" cx="38.6" cy="295.1" r="1.1"/>
    <circle class="st32" cx="941" cy="80.7" r=".6"/>
    <circle class="st33" cx="598.6" cy="308.3" r=".5"/>
    <circle class="st35" cx="497.9" cy="189.4" r="1.1"/>
    <circle class="st1" cx="1079.2" cy="353.4" r=".4"/>
    <circle class="st15" cx="567.1" cy="1112.1" r=".4"/>
    <circle class="st32" cx="819.6" cy="649.9" r=".8"/>
    <circle class="st10" cx="49.5" cy="1016.8" r=".7"/>
    <circle class="st13" cx="929.8" cy="100.8" r=".6"/>
    <circle class="st11" cx="344.1" cy="484.6" r=".6"/>
    <circle class="st2" cx="391.4" cy="181.9" r=".9"/>
    <circle class="st17" cx="454.3" cy="16.2" r=".9"/>
    <circle class="st32" cx="32.9" cy="959.7" r="1.2"/>
    <circle class="st17" cx="632.1" cy="243.3" r="1.2"/>
    <circle class="st6" cx="625.2" cy="632.6" r=".7"/>
    <circle class="st14" cx="905.3" cy="769.9" r="1"/>
    <circle class="st35" cx="855.1" cy="1030" r=".8"/>
    <circle class="st15" cx="953.3" cy="779.7" r="1.1"/>
    <circle class="st19" cx="521.9" cy="130.9" r=".5"/>
    <circle class="st14" cx="269.6" cy="65.3" r="1.3"/>
    <circle class="st18" cx="922.9" cy="575.3" r="1.1"/>
    <circle class="st10" cx="300.3" cy="1103.9" r="1"/>
    <circle class="st14" cx="1043.8" cy="209.8" r=".4"/>
    <circle class="st1" cx="6.3" cy="685.9" r=".8"/>
    <circle class="st34" cx="188.5" cy="565.8" r=".5"/>
    <circle class="st1" cx="885.7" cy="743.5" r="1.2"/>
    <circle class="st32" cx="459.5" cy="996.9" r=".7"/>
    <circle class="st32" cx="662.1" cy="392.5" r=".7"/>
    <circle class="st9" cx="766.3" cy="787" r=".5"/>
    <circle class="st2" cx="1036.6" cy="756.4" r="1.2"/>
    <circle class="st15" cx="629.3" cy="914.2" r="1.1"/>
    <circle class="st15" cx="887.1" cy="798.2" r=".5"/>
    <circle class="st32" cx="271.5" cy="588.9" r="1"/>
    <circle class="st35" cx="848.6" cy="467.8" r="1"/>
    <circle class="st17" cx="75.9" cy="317.5" r=".4"/>
    <circle class="st0" cx="152.4" cy="392.7" r=".7"/>
    <circle class="st2" cx="1033.2" cy="414.7" r=".4"/>
    <circle class="st35" cx="315.1" cy="243" r=".7"/>
    <circle class="st19" cx="294.9" cy="613" r="1"/>
    <circle class="st14" cx="744.9" cy="65.7" r="1.2"/>
    <circle class="st19" cx="581.3" cy="849.4" r=".7"/>
    <circle class="st33" cx="799.7" cy="892.3" r="1"/>
    <circle class="st14" cx="710" cy="1012.1" r=".7"/>
    <circle class="st10" cx="16.9" cy="1018.4" r=".7"/>
    <circle class="st16" cx="774.6" cy="79.4" r=".5"/>
    <circle class="st1" cx="584.9" cy="481.6" r="1"/>
    <circle class="st6" cx="41.4" cy="1117.3" r=".5"/>
    <circle class="st0" cx="840.9" cy="1116.7" r="1.2"/>
    <circle class="st8" cx="890.8" cy="293.1" r=".9"/>
    <circle class="st12" cx="822.3" cy="129.1" r=".4"/>
    <circle class="st15" cx="966.6" cy="182.4" r=".7"/>
    <circle class="st12" cx="827.5" cy="89.7" r="1.2"/>
    <circle class="st14" cx="993.3" cy="510.1" r=".8"/>
    <circle class="st17" cx="626.8" cy="629" r="1.1"/>
    <circle class="st14" cx="459.7" cy="333.4" r="1.3"/>
    <circle class="st1" cx="169.1" cy="577.7" r=".5"/>
    <circle class="st0" cx="595.5" cy="514.9" r=".9"/>
    <circle class="st9" cx="957.8" cy="1104.7" r=".9"/>
    <circle class="st15" cx="999.5" cy="944.9" r=".6"/>
    <circle class="st19" cx="173.7" cy="459.4" r=".7"/>
    <circle class="st17" cx="1152.1" cy="169.7" r=".7"/>
    <circle class="st35" cx="1076.4" cy="708.1" r=".7"/>
  </g>
  <g id="Planet2">
    <path class="st45" d="M758.3,604.5c1.7.3,3,1.6,4,3.8.9,2.2,1.4,5.2,1.4,8.8,0,7.3-1.7,17.1-5.4,27.6-3.6,10.5-8.5,19.8-13.3,26.2-2.4,3.2-4.8,5.7-7,7.3s-4.2,2.2-5.9,1.9-3-1.6-4-3.8c-.9-2.2-1.4-5.2-1.4-8.8,0-7.3,1.7-17.1,5.4-27.6,3.6-10.5,8.5-19.8,13.3-26.2,2.4-3.2,4.8-5.7,7-7.3s4.2-2.2,5.9-1.9Z"/>
    <path class="st43" d="M782.6,607.5c1.2,1.7,1.4,4.2.6,7.5-.7,3.3-2.4,7.2-4.9,11.5-5,8.7-13.2,18.9-23.4,28.7-10.2,9.7-20.5,17-28.8,20.9-4.2,2-7.8,3.1-10.7,3.3s-5-.5-6.1-2.2c-1.2-1.7-1.4-4.2-.6-7.5.7-3.3,2.4-7.2,4.9-11.5,5-8.7,13.2-18.9,23.4-28.7,10.2-9.7,20.5-17,28.8-20.9,4.2-2,7.8-3.1,10.7-3.3s5,.5,6.1,2.2Z"/>
    <circle class="st38" cx="745.2" cy="640.7" r="23"/>
    <path class="st43" d="M765.8,608.6c4.2-2,7.8-3.1,10.7-3.3s5,.5,6.1,2.2c1.2,1.7,1.4,4.2.6,7.5-.7,3.3-2.4,7.2-4.9,11.5-5,8.7-13.2,18.9-23.4,28.7-10.2,9.7-20.5,17-28.8,20.9-4.2,2-7.8,3.1-10.7,3.3s-5-.5-6.1-2.2c-1.2-1.7-1.4-4.2-.6-7.5.7-3.3,2.4-7.2,4.9-11.5"/>
    <path class="st45" d="M745.3,613.7c2.4-3.2,4.8-5.7,7-7.3s4.2-2.2,5.9-1.9,3,1.6,4,3.8c.9,2.2,1.4,5.2,1.4,8.8,0,7.3-1.7,17.1-5.4,27.6-3.6,10.5-8.5,19.8-13.3,26.2-2.4,3.2-4.8,5.7-7,7.3s-4.2,2.2-5.9,1.9-3-1.6-4-3.8c-.9-2.2-1.4-5.2-1.4-8.8"/>
  </g>
  <g>
    <circle class="st46" cx="578" cy="1079.5" r="330"/>
    <circle class="st41" cx="578" cy="1079.5" r="330"/>
  </g>
  <g id="Planet_1">
    <path class="st44" d="M464.4,401.4c1.3-.4,3.2.2,5.6,2.4,2.3,2.1,4.9,5.5,7.6,10,5.4,8.8,11.1,21.7,15.8,36.3,4.7,14.7,7.5,28.4,8.3,38.7.4,5.2.3,9.4-.4,12.5-.7,3.2-1.8,4.8-3.1,5.2-1.3.4-3.2-.2-5.6-2.4-2.3-2.1-4.9-5.5-7.6-10-5.4-8.8-11.1-21.7-15.8-36.3-4.7-14.7-7.5-28.4-8.3-38.7-.4-5.2-.3-9.4.4-12.5.7-3.2,1.8-4.8,3.1-5.2Z"/>
    <circle class="st37" cx="479.4" cy="454.9" r="31"/>
    <circle class="st46" cx="518.1" cy="460.9" r="6"/>
    <circle class="st46" cx="438.5" cy="481.4" r="7.5"/>
    <path class="st44" d="M460.9,419.1c-.4-5.2-.3-9.4.4-12.5.7-3.2,1.8-4.8,3.1-5.2,1.3-.4,3.2.2,5.6,2.4,2.3,2.1,4.9,5.5,7.6,10,5.4,8.8,11.1,21.7,15.8,36.3,4.7,14.7,7.5,28.4,8.3,38.7.4,5.2.3,9.4-.4,12.5-.7,3.2-1.8,4.8-3.1,5.2-1.3.4-3.2-.2-5.6-2.4-2.3-2.1-4.9-5.5-7.6-10"/>
  </g>
</svg>